<?xml version="1.0" encoding="UTF-8"?>
<svg xmlns="http://www.w3.org/2000/svg" viewBox="0 0 166.25 45.35">
  <defs>
    <style>
      .cls-1 {
        fill: #1d1d1b;
      }
    </style>
  </defs>
  <g id="_Слой_1" data-name="Слой 1">
    <g>
      <path class="cls-1" d="M22.25,16.95c2.14,0,3.88-1.74,3.88-3.88s-1.74-3.88-3.88-3.88-3.88,1.74-3.88,3.88,1.74,3.88,3.88,3.88ZM22.25,9.96c1.71,0,3.11,1.39,3.11,3.11s-1.39,3.11-3.11,3.11-3.11-1.39-3.11-3.11,1.39-3.11,3.11-3.11Z"/>
      <circle class="cls-1" cx="13.07" cy="22.43" r="3.88"/>
      <circle class="cls-1" cx="31.42" cy="22.43" r="3.88"/>
      <circle class="cls-1" cx="13.07" cy="31.79" r="3.88"/>
      <path class="cls-1" d="M22.25,27.9c-2.14,0-3.88,1.74-3.88,3.88s1.74,3.88,3.88,3.88,3.88-1.74,3.88-3.88-1.74-3.88-3.88-3.88ZM22.25,34.89c-1.71,0-3.11-1.39-3.11-3.11s1.39-3.11,3.11-3.11,3.11,1.39,3.11,3.11-1.39,3.11-3.11,3.11Z"/>
      <circle class="cls-1" cx="31.42" cy="31.79" r="3.88"/>
      <path class="cls-1" d="M31.42,9.19c-2.14,0-3.88,1.74-3.88,3.88,0,.95.34,1.81.9,2.49l-3.76,3.85c-.67-.54-1.51-.86-2.43-.86s-1.76.32-2.43.85l-3.77-3.84c.56-.67.9-1.54.9-2.48,0-2.14-1.74-3.88-3.88-3.88s-3.88,1.74-3.88,3.88,1.74,3.88,3.88,3.88c.92,0,1.76-.32,2.43-.86l3.77,3.84c-.56.67-.9,1.54-.9,2.49,0,2.14,1.74,3.88,3.88,3.88s3.88-1.74,3.88-3.88c0-.94-.34-1.81-.9-2.48l3.76-3.85c.67.53,1.51.85,2.43.85,2.14,0,3.88-1.74,3.88-3.88s-1.74-3.88-3.88-3.88Z"/>
    </g>
  </g>
  <g id="_Слой_2" data-name="Слой 2">
    <g>
      <path class="cls-1" d="M40.37,11.13h5.19l4.78,5.9,4.78-5.9h5.39v8.61h-3.89v-5.05l-4.1,5.05h-4.38l-3.9-4.81v4.81h-3.89v-8.61Z"/>
      <path class="cls-1" d="M61.5,11.13h3.89v8.61h-3.89v-8.61Z"/>
      <path class="cls-1" d="M82.6,19.74h-11.68c-2.37,0-4.3-1.93-4.3-4.3s1.93-4.3,4.3-4.3h11.68v3.2h-10.88c-.68,0-1.23.43-1.23,1.11s.55,1.11,1.23,1.11h10.88v3.2Z"/>
      <path class="cls-1" d="M83.83,19.74v-8.61h12.91c2.15,0,3.44,1.72,3.44,3.44,0,1.49-.97,2.98-2.62,3.36l2.62,1.81h-5.02l-2.5-1.72h-4.96v1.72h-3.89ZM87.71,14.08v.98h8.04c.34,0,.54-.19.54-.49s-.2-.49-.54-.49h-8.04Z"/>
      <path class="cls-1" d="M114.08,11.01c2.37,0,4.3,2.05,4.3,4.43s-1.93,4.43-4.3,4.43h-8.98c-2.37,0-4.3-2.05-4.3-4.43s1.93-4.43,4.3-4.43h8.98ZM105.9,14.21c-.68,0-1.23.55-1.23,1.23s.55,1.23,1.23,1.23h7.38c.68,0,1.23-.55,1.23-1.23s-.55-1.23-1.23-1.23h-7.38Z"/>
      <path class="cls-1" d="M119.49,14.21h5.66v2.46h-5.66v-2.46Z"/>
      <path class="cls-1" d="M40.37,25.89h15.99v2.21h-12.1v.98h11.61v2.21h-11.61v3.2h-3.89v-8.61Z"/>
      <path class="cls-1" d="M57.22,25.89h3.89v5.66h10.87v2.95h-14.76v-8.61Z"/>
      <path class="cls-1" d="M89.32,30.19c0,2.38-1.93,4.43-4.3,4.43h-7.75c-2.37,0-4.3-2.05-4.3-4.43v-4.3h3.89v4.3c0,.68.55,1.23,1.23,1.23h6.12c.68,0,1.23-.55,1.23-1.23v-4.3h3.89v4.3Z"/>
      <path class="cls-1" d="M90.3,25.89h3.89v8.61h-3.89v-8.61Z"/>
      <path class="cls-1" d="M95.41,34.5v-8.61h12.42c2.37,0,4.3,1.93,4.3,4.3s-1.93,4.3-4.3,4.3h-12.42ZM99.29,31.42h7.69c.76,0,1.29-.52,1.29-1.23s-.53-1.23-1.29-1.23h-7.69v2.46Z"/>
      <path class="cls-1" d="M112.87,25.89h3.89v8.61h-3.89v-8.61Z"/>
      <path class="cls-1" d="M118.23,25.89h3.89v4.72l6.84-4.72h5.63l-6.24,4.3,6.24,4.3h-5.63l-3.42-2.36-3.42,2.36h-3.89v-8.61Z"/>
      <path class="cls-1" d="M146.18,25.89l6.97,8.61h-4.38l-1-1.23h-7.58l-1,1.23h-4.38l6.97-8.61h4.38ZM142.2,30.81h3.59l-1.8-2.21-1.8,2.21Z"/>
    </g>
  </g>
</svg>